<?xml version="1.0" encoding="UTF-8" standalone="no"?>
<!-- Created with Inkscape (http://www.inkscape.org/) -->

<svg
   width="210mm"
   height="297mm"
   viewBox="0 0 210 297"
   version="1.1"
   id="svg5"
   inkscape:version="1.1.1 (3bf5ae0d25, 2021-09-20)"
   sodipodi:docname="inkscape.svg"
   xmlns:inkscape="http://www.inkscape.org/namespaces/inkscape"
   xmlns:sodipodi="http://sodipodi.sourceforge.net/DTD/sodipodi-0.dtd"
   xmlns="http://www.w3.org/2000/svg"
   xmlns:svg="http://www.w3.org/2000/svg">
  <sodipodi:namedview
     id="namedview7"
     pagecolor="#ffffff"
     bordercolor="#999999"
     borderopacity="1"
     inkscape:pageshadow="0"
     inkscape:pageopacity="0"
     inkscape:pagecheckerboard="0"
     inkscape:document-units="mm"
     showgrid="false"
     inkscape:zoom="1.2810466"
     inkscape:cx="124.89788"
     inkscape:cy="700.20873"
     inkscape:window-width="2558"
     inkscape:window-height="1360"
     inkscape:window-x="2873"
     inkscape:window-y="0"
     inkscape:window-maximized="0"
     inkscape:current-layer="layer1" />
  <defs
     id="defs2" />
  <g
     inkscape:label="Ebene 1"
     inkscape:groupmode="layer"
     id="layer1">
    <path
       id="path846"
       style="fill:#00ff4e;fill-opacity:1;stroke:#000000;stroke-width:3.77953;stroke-miterlimit:4;stroke-dasharray:none;stroke-opacity:1"
       d="M 631.07812 731.68359 C 630.669 729.94742 630.2486 728.23303 629.90039 726.37305 C 629.64893 725.02987 629.41587 723.65186 629.20117 722.23438 C 628.98648 720.81689 628.79093 719.35934 628.61719 717.85938 C 628.44345 716.35941 628.2907 714.81717 628.16211 713.22656 C 628.03351 711.63595 627.92887 709.99802 627.84961 708.30859 C 627.77035 706.61917 627.71714 704.87844 627.69141 703.08203 C 627.66567 701.28563 627.66723 699.43304 627.69922 697.52148 C 627.73121 695.60993 627.79282 693.63839 627.88672 691.60352 C 627.98061 689.56864 628.10758 687.47106 628.26758 685.30469 C 628.42757 683.13832 628.62128 680.90368 628.85156 678.59766 C 629.08185 676.29163 629.34758 673.91284 629.65234 671.45898 C 629.82717 670.05147 629.9246 668.64056 629.96875 667.21875 C 630.0129 665.79694 630.0047 664.36436 629.96484 662.91602 C 629.88513 660.01933 629.68457 657.05873 629.54883 653.98242 C 629.48096 652.44427 629.42789 650.87682 629.41602 649.27539 C 629.40414 647.67396 629.43266 646.03828 629.52344 644.36133 C 629.61422 642.68438 629.76771 640.96589 630.00781 639.20117 C 630.24792 637.43646 630.57367 635.62449 631.00977 633.75977 C 629.99841 632.07199 628.94619 630.3831 627.85352 628.70703 C 626.76084 627.03096 625.62935 625.36887 624.46094 623.73438 C 623.29252 622.09988 622.08624 620.49273 620.84766 618.92969 C 619.60908 617.36664 618.33832 615.84649 617.03516 614.38477 C 615.73199 612.92304 614.39733 611.51999 613.03516 610.18945 C 611.67298 608.85892 610.2828 607.60111 608.86719 606.43164 C 607.45158 605.26217 606.01034 604.18166 604.54688 603.20312 C 603.81514 602.71386 603.07859 602.25039 602.33594 601.81445 C 601.59329 601.37852 600.84467 600.96871 600.0918 600.58984 C 599.33893 600.21098 598.58075 599.86298 597.81836 599.54492 C 597.05597 599.22686 596.2888 598.93907 595.51758 598.68555 C 594.74636 598.43202 593.97075 598.2126 593.19141 598.02734 C 592.41206 597.84209 591.62858 597.69137 590.8418 597.57812 C 590.05502 597.46488 589.26617 597.38907 588.47266 597.35156 C 587.67914 597.31405 586.88158 597.31546 586.08203 597.35742 C 585.28248 597.39938 584.48067 597.48225 583.67578 597.60742 C 582.87089 597.73259 582.06344 597.89922 581.25391 598.11133 C 580.44437 598.32344 579.63184 598.58003 578.81836 598.88281 C 578.00488 599.1856 577.18978 599.53445 576.37305 599.93164 C 575.55632 600.32884 574.7392 600.77419 573.91992 601.26953 C 573.10064 601.76487 572.28012 602.31099 571.45898 602.9082 C 570.63785 603.50542 569.81448 604.1546 568.99219 604.85742 C 568.16989 605.56025 567.34814 606.31674 566.52539 607.12891 C 565.70264 607.94108 564.87916 608.80913 564.05664 609.73438 C 563.23412 610.65962 562.41338 611.64153 561.5918 612.68359 C 561.31861 613.68791 561.07383 614.69437 560.85547 615.70117 C 560.63711 616.70798 560.44397 617.71557 560.27539 618.72461 C 559.93824 620.74268 559.69565 622.76553 559.52734 624.79102 C 559.35904 626.8165 559.26445 628.84414 559.22461 630.875 C 559.18477 632.90586 559.19981 634.93844 559.24805 636.97266 C 559.34452 641.04109 559.57673 645.1139 559.7832 649.18359 C 559.88644 651.21844 559.98258 653.25303 560.05273 655.28516 C 560.12289 657.31728 560.16737 659.34762 560.16406 661.375 C 560.16226 662.52432 560.24545 663.73617 560.40039 664.99805 C 560.55533 666.25992 560.78118 667.57279 561.0625 668.92383 C 561.34382 670.27487 561.68124 671.66327 562.05859 673.08008 C 562.43595 674.49689 562.85385 675.9412 563.29688 677.40039 C 564.18292 680.31876 565.17013 683.29859 566.13672 686.24609 C 567.10331 689.1936 568.04923 692.10897 568.85352 694.89844 C 569.25566 696.29317 569.62342 697.65643 569.93945 698.97656 C 570.25549 700.2967 570.51918 701.57278 570.71875 702.79492 C 570.91832 704.01706 571.05273 705.18441 571.10547 706.28516 C 571.15821 707.3859 571.1303 708.42099 571.00586 709.37695 C 570.94364 709.85493 570.85635 710.3126 570.74414 710.75 C 570.63193 711.1874 570.49411 711.60416 570.32812 711.99805 C 570.16214 712.39194 569.96966 712.76387 569.74609 713.11133 C 569.52253 713.45879 569.26736 713.78198 568.98242 714.08008 C 568.69749 714.37818 568.38135 714.65066 568.03125 714.89648 C 567.68115 715.1423 567.29797 715.36212 566.87891 715.55273 C 566.45985 715.74335 566.00548 715.90462 565.51367 716.03711 C 565.02186 716.1696 564.49219 716.27232 563.92383 716.34375 C 563.45387 716.40281 562.81413 716.58949 562.02734 716.88867 C 561.24056 717.18785 560.30631 717.60054 559.25391 718.11133 C 558.2015 718.62212 557.03049 719.23189 555.76367 719.92578 C 554.49685 720.61968 553.13511 721.3976 551.70508 722.24609 C 548.84502 723.94308 545.70959 725.9201 542.50391 728.06445 C 540.90107 729.13663 539.28041 730.25132 537.66797 731.39258 C 536.05553 732.53384 534.45169 733.70098 532.88086 734.88281 C 531.31003 736.06465 529.77294 737.26117 528.29492 738.45508 C 526.8169 739.64898 525.39846 740.84206 524.06445 742.01953 C 522.73045 743.197 521.48058 744.35771 520.3418 745.49023 C 519.20301 746.62276 518.17556 747.72607 517.2832 748.78516 C 516.39084 749.84424 515.63379 750.85928 515.03906 751.81641 C 514.7417 752.29497 514.48484 752.7593 514.27148 753.20703 C 514.05813 753.65476 513.88857 754.08666 513.76562 754.5 C 513.64268 754.91334 513.5652 755.30822 513.53906 755.68359 C 513.51292 756.05897 513.53816 756.41419 513.61523 756.74805 C 513.69231 757.0819 513.82113 757.39482 514.00781 757.68359 C 514.1945 757.97236 514.43754 758.23644 514.74023 758.47656 C 516.27662 759.69535 517.85669 760.88703 519.4668 762.05469 C 521.0769 763.22235 522.71724 764.36588 524.37891 765.49414 C 527.70224 767.75067 531.1073 769.94003 534.50391 772.10938 C 537.90051 774.27872 541.28943 776.42944 544.58203 778.60547 C 545.75737 779.38223 546.90207 780.16739 548.04883 780.95312 A 109.72822 109.72821 0 0 0 631.07812 731.68359 z "
       transform="scale(0.26458333)"
       inkscape:export-filename="C:\Users\maxim\Documents\workspaces\LD50\Assets\Sprites\Earth.png"
       inkscape:export-xdpi="300"
       inkscape:export-ydpi="300" />
    <path
       id="path5603"
       style="fill:#0000ff;fill-opacity:1;stroke:#000000;stroke-width:3.77953;stroke-miterlimit:4;stroke-dasharray:none;stroke-opacity:1"
       d="M 539.27148 561.85742 A 109.72822 109.72821 0 0 0 492.29297 572.46875 C 492.4743 572.54743 492.65889 572.62208 492.83984 572.70117 C 494.02987 573.22135 495.21197 573.75022 496.38477 574.28906 C 497.55756 574.8279 498.72078 575.37658 499.875 575.93555 C 501.02922 576.49451 502.17429 577.06398 503.30859 577.64453 C 504.44289 578.22508 505.56666 578.81633 506.67969 579.41992 C 507.79272 580.02351 508.89396 580.63949 509.98438 581.26758 C 511.07478 581.89567 512.15425 582.53541 513.2207 583.18945 C 514.28716 583.8435 515.34166 584.5119 516.38281 585.19336 C 517.42396 585.87482 518.4523 586.56897 519.4668 587.2793 C 520.4813 587.98963 521.48225 588.71637 522.46875 589.45703 C 523.45525 590.19769 524.4276 590.95216 525.38477 591.72461 C 526.34193 592.49706 527.28251 593.2861 528.20898 594.0918 C 529.13546 594.89749 530.04697 595.72015 530.94141 596.56055 C 531.83585 597.40094 532.71316 598.26016 533.57422 599.13672 C 534.43528 600.01328 535.27913 600.90809 536.10547 601.82227 C 536.93181 602.73644 537.74098 603.66979 538.53125 604.62305 C 538.92638 605.09967 539.31727 605.58169 539.70312 606.06836 C 540.08899 606.55503 540.46928 607.04608 540.8457 607.54297 L 537.98438 649.69531 C 537.89931 650.57926 537.80383 651.44096 537.69922 652.2793 C 537.5946 653.11764 537.48069 653.93176 537.35742 654.72656 C 537.23415 655.52136 537.10198 656.29548 536.96094 657.04883 C 536.8199 657.80217 536.66964 658.53604 536.51172 659.25 C 536.3538 659.96396 536.18758 660.65928 536.01367 661.33594 C 535.83977 662.0126 535.65971 662.67107 535.4707 663.3125 C 535.2817 663.95393 535.08407 664.57726 534.88086 665.18555 C 534.67765 665.79383 534.46848 666.38568 534.25195 666.96289 C 534.03543 667.5401 533.81294 668.10217 533.58398 668.65039 C 533.35503 669.19861 533.11939 669.7326 532.87891 670.25391 C 532.63842 670.77521 532.39176 671.28478 532.14062 671.78125 C 531.8895 672.27772 531.63393 672.76262 531.37305 673.23633 C 531.11216 673.71003 530.84592 674.17198 530.57617 674.625 C 530.30642 675.07802 530.03358 675.52066 529.75586 675.95508 C 529.47813 676.38949 529.19692 676.81649 528.91211 677.23438 C 528.6273 677.65225 528.33787 678.06141 528.04688 678.46484 C 527.46487 679.27171 526.87097 680.05293 526.26953 680.81445 C 525.66809 681.57598 525.05906 682.31798 524.44531 683.05078 C 523.21782 684.51639 521.97423 685.94213 520.74023 687.39258 C 520.12324 688.1178 519.50833 688.84934 518.90039 689.5957 C 518.29245 690.34206 517.69137 691.1026 517.09961 691.88672 C 516.50785 692.67084 515.92587 693.47791 515.35742 694.31641 C 515.0732 694.73565 514.79074 695.16365 514.51367 695.59961 C 514.23661 696.03557 513.96432 696.47885 513.69531 696.93359 C 513.45212 697.13947 513.20953 697.33192 512.96875 697.50977 C 512.72797 697.68761 512.48844 697.85162 512.25 698.00195 C 512.01156 698.15228 511.77524 698.28878 511.53906 698.41211 C 511.30288 698.53544 511.06799 698.64535 510.83398 698.74219 C 510.59998 698.83902 510.36667 698.92328 510.13477 698.99414 C 509.90287 699.065 509.67128 699.12258 509.44141 699.16797 C 509.21153 699.21336 508.98379 699.24714 508.75586 699.26758 C 508.52792 699.28802 508.30029 699.29502 508.07422 699.29102 C 507.84815 699.28702 507.62272 699.27207 507.39844 699.24414 C 507.17415 699.21621 506.9511 699.17634 506.72852 699.125 C 506.50593 699.07366 506.28345 699.00979 506.0625 698.93555 C 505.84155 698.8613 505.62175 698.77632 505.40234 698.67969 C 505.18294 698.58305 504.96403 698.47398 504.74609 698.35547 C 504.52816 698.23696 504.31225 698.10863 504.0957 697.96875 C 503.87915 697.82887 503.6625 697.67831 503.44727 697.51758 C 503.23203 697.35685 503.01674 697.18497 502.80273 697.00391 C 502.58873 696.82284 502.37692 696.63253 502.16406 696.43164 C 501.95121 696.23075 501.73717 696.02099 501.52539 695.80078 C 501.10183 695.36037 500.68146 694.88178 500.26172 694.36719 C 499.84198 693.85259 499.42437 693.30147 499.00781 692.7168 C 498.59126 692.13212 498.17572 691.51393 497.76172 690.86328 C 497.34772 690.21263 496.93357 689.52893 496.52148 688.81641 C 496.1094 688.10388 495.69986 687.3621 495.28906 686.5918 C 494.87827 685.82149 494.46678 685.0232 494.05664 684.19922 C 493.6465 683.37524 493.23628 682.5259 492.82617 681.65234 C 492.41606 680.77879 492.00642 679.87996 491.5957 678.96094 C 491.18498 678.04191 490.77329 677.10102 490.36133 676.14062 C 489.5374 674.21984 488.71159 672.22182 487.87891 670.16016 C 487.04622 668.09849 486.20783 665.97443 485.36133 663.80469 C 484.51483 661.63495 483.6603 659.41883 482.79492 657.17383 C 481.92954 654.92883 481.05338 652.65464 480.16406 650.36719 C 479.27475 648.07974 478.37144 645.77952 477.45312 643.48242 C 476.53482 641.18533 475.60081 638.89111 474.64844 636.61719 C 474.17225 635.48022 473.69073 634.34768 473.20508 633.22266 C 472.71943 632.09764 472.23011 630.98007 471.73438 629.87109 C 471.23863 628.76212 470.73694 627.66305 470.23047 626.57422 C 469.724 625.48539 469.21314 624.40638 468.69531 623.3418 C 468.17748 622.27721 467.65287 621.22569 467.12305 620.18945 C 466.59322 619.15322 466.05807 618.13269 465.51562 617.12891 C 464.97319 616.12512 464.42289 615.1391 463.86719 614.17188 C 463.31148 613.20464 462.74928 612.25667 462.17969 611.33008 C 461.61009 610.40349 461.03334 609.49902 460.44922 608.61719 C 459.8651 607.73535 459.2731 606.87595 458.67383 606.04297 C 458.07455 605.20999 457.46858 604.40308 456.85352 603.62305 C 456.24518 602.85154 455.62831 602.10829 455.00391 601.39258 A 109.72822 109.72821 0 0 0 429.54297 671.58398 A 109.72822 109.72821 0 0 0 539.27148 781.3125 A 109.72822 109.72821 0 0 0 548.04883 780.95312 C 546.90207 780.16739 545.75737 779.38223 544.58203 778.60547 C 541.28943 776.42944 537.90051 774.27872 534.50391 772.10938 C 531.1073 769.94003 527.70224 767.75067 524.37891 765.49414 C 522.71724 764.36588 521.0769 763.22235 519.4668 762.05469 C 517.85669 760.88703 516.27662 759.69535 514.74023 758.47656 C 514.43754 758.23644 514.1945 757.97236 514.00781 757.68359 C 513.82113 757.39482 513.69231 757.0819 513.61523 756.74805 C 513.53816 756.41419 513.51292 756.05897 513.53906 755.68359 C 513.5652 755.30822 513.64268 754.91334 513.76562 754.5 C 513.88857 754.08666 514.05813 753.65476 514.27148 753.20703 C 514.48484 752.7593 514.7417 752.29497 515.03906 751.81641 C 515.63379 750.85928 516.39084 749.84424 517.2832 748.78516 C 518.17556 747.72607 519.20301 746.62276 520.3418 745.49023 C 521.48058 744.35771 522.73045 743.197 524.06445 742.01953 C 525.39846 740.84206 526.8169 739.64898 528.29492 738.45508 C 529.77294 737.26117 531.31003 736.06465 532.88086 734.88281 C 534.45169 733.70098 536.05553 732.53384 537.66797 731.39258 C 539.28041 730.25132 540.90107 729.13663 542.50391 728.06445 C 545.70959 725.9201 548.84502 723.94308 551.70508 722.24609 C 553.13511 721.3976 554.49685 720.61968 555.76367 719.92578 C 557.03049 719.23189 558.2015 718.62212 559.25391 718.11133 C 560.30631 717.60054 561.24056 717.18785 562.02734 716.88867 C 562.81413 716.58949 563.45387 716.40281 563.92383 716.34375 C 564.49219 716.27232 565.02186 716.1696 565.51367 716.03711 C 566.00548 715.90462 566.45985 715.74335 566.87891 715.55273 C 567.29797 715.36212 567.68115 715.1423 568.03125 714.89648 C 568.38135 714.65066 568.69749 714.37818 568.98242 714.08008 C 569.26736 713.78198 569.52253 713.45879 569.74609 713.11133 C 569.96966 712.76387 570.16214 712.39194 570.32812 711.99805 C 570.49411 711.60416 570.63193 711.1874 570.74414 710.75 C 570.85635 710.3126 570.94364 709.85493 571.00586 709.37695 C 571.1303 708.42099 571.15821 707.3859 571.10547 706.28516 C 571.05273 705.18441 570.91832 704.01706 570.71875 702.79492 C 570.51918 701.57278 570.25549 700.2967 569.93945 698.97656 C 569.62342 697.65643 569.25566 696.29317 568.85352 694.89844 C 568.04923 692.10897 567.10331 689.1936 566.13672 686.24609 C 565.17013 683.29859 564.18292 680.31876 563.29688 677.40039 C 562.85385 675.9412 562.43595 674.49689 562.05859 673.08008 C 561.68124 671.66327 561.34382 670.27487 561.0625 668.92383 C 560.78118 667.57279 560.55533 666.25992 560.40039 664.99805 C 560.24545 663.73617 560.16226 662.52432 560.16406 661.375 C 560.16737 659.34762 560.12289 657.31728 560.05273 655.28516 C 559.98258 653.25303 559.88644 651.21844 559.7832 649.18359 C 559.57673 645.1139 559.34452 641.04109 559.24805 636.97266 C 559.19981 634.93844 559.18477 632.90586 559.22461 630.875 C 559.26445 628.84414 559.35904 626.8165 559.52734 624.79102 C 559.69565 622.76553 559.93824 620.74268 560.27539 618.72461 C 560.44397 617.71557 560.63711 616.70798 560.85547 615.70117 C 561.07383 614.69437 561.31861 613.68791 561.5918 612.68359 C 562.41338 611.64153 563.23412 610.65962 564.05664 609.73438 C 564.87916 608.80913 565.70264 607.94108 566.52539 607.12891 C 567.34814 606.31674 568.16989 605.56025 568.99219 604.85742 C 569.81448 604.1546 570.63785 603.50542 571.45898 602.9082 C 572.28012 602.31099 573.10064 601.76487 573.91992 601.26953 C 574.7392 600.77419 575.55632 600.32884 576.37305 599.93164 C 577.18978 599.53445 578.00488 599.1856 578.81836 598.88281 C 579.63184 598.58003 580.44437 598.32344 581.25391 598.11133 C 582.06344 597.89922 582.87089 597.73259 583.67578 597.60742 C 584.48067 597.48225 585.28248 597.39938 586.08203 597.35742 C 586.88158 597.31546 587.67914 597.31405 588.47266 597.35156 C 589.26617 597.38907 590.05502 597.46488 590.8418 597.57812 C 591.62858 597.69137 592.41206 597.84209 593.19141 598.02734 C 593.97075 598.2126 594.74636 598.43202 595.51758 598.68555 C 596.2888 598.93907 597.05597 599.22686 597.81836 599.54492 C 598.58075 599.86298 599.33893 600.21098 600.0918 600.58984 C 600.84467 600.96871 601.59329 601.37852 602.33594 601.81445 C 603.07859 602.25039 603.81514 602.71386 604.54688 603.20312 C 606.01034 604.18166 607.45158 605.26217 608.86719 606.43164 C 610.2828 607.60111 611.67298 608.85892 613.03516 610.18945 C 614.39733 611.51999 615.73199 612.92304 617.03516 614.38477 C 618.33832 615.84649 619.60908 617.36664 620.84766 618.92969 C 622.08624 620.49273 623.29252 622.09988 624.46094 623.73438 C 625.62935 625.36887 626.76084 627.03096 627.85352 628.70703 C 628.94619 630.3831 629.99841 632.07199 631.00977 633.75977 C 630.57367 635.62449 630.24792 637.43646 630.00781 639.20117 C 629.76771 640.96589 629.61422 642.68438 629.52344 644.36133 C 629.43266 646.03828 629.40414 647.67396 629.41602 649.27539 C 629.42789 650.87682 629.48096 652.44427 629.54883 653.98242 C 629.68457 657.05873 629.88513 660.01933 629.96484 662.91602 C 630.0047 664.36436 630.0129 665.79694 629.96875 667.21875 C 629.9246 668.64056 629.82717 670.05147 629.65234 671.45898 C 629.34758 673.91284 629.08185 676.29163 628.85156 678.59766 C 628.62128 680.90368 628.42757 683.13832 628.26758 685.30469 C 628.10758 687.47106 627.98061 689.56864 627.88672 691.60352 C 627.79282 693.63839 627.73121 695.60993 627.69922 697.52148 C 627.66723 699.43304 627.66567 701.28563 627.69141 703.08203 C 627.71714 704.87844 627.77035 706.61917 627.84961 708.30859 C 627.92887 709.99802 628.03351 711.63595 628.16211 713.22656 C 628.2907 714.81717 628.44345 716.35941 628.61719 717.85938 C 628.79093 719.35934 628.98648 720.81689 629.20117 722.23438 C 629.41587 723.65186 629.64893 725.02987 629.90039 726.37305 C 630.2486 728.23303 630.669 729.94742 631.07812 731.68359 A 109.72822 109.72821 0 0 0 649 671.58398 A 109.72822 109.72821 0 0 0 539.27148 561.85742 z "
       transform="scale(0.26458333)"
       inkscape:export-filename="C:\Users\maxim\Documents\workspaces\LD50\Assets\Sprites\Earth.png"
       inkscape:export-xdpi="300"
       inkscape:export-ydpi="300" />
    <path
       id="path2703"
       style="fill:#00ff4e;fill-opacity:1;stroke:#000000;stroke-width:3.77953;stroke-miterlimit:4;stroke-dasharray:none;stroke-opacity:1"
       d="M 455.00391 601.39258 C 455.62831 602.10829 456.24518 602.85154 456.85352 603.62305 C 457.46858 604.40308 458.07455 605.20999 458.67383 606.04297 C 459.2731 606.87595 459.8651 607.73535 460.44922 608.61719 C 461.03334 609.49902 461.61009 610.40349 462.17969 611.33008 C 462.74928 612.25667 463.31148 613.20464 463.86719 614.17188 C 464.42289 615.13911 464.97318 616.12512 465.51562 617.12891 C 466.05807 618.13269 466.59322 619.15322 467.12305 620.18945 C 467.65287 621.22569 468.17748 622.27721 468.69531 623.3418 C 469.21314 624.40638 469.724 625.48539 470.23047 626.57422 C 470.73694 627.66305 471.23863 628.76212 471.73438 629.87109 C 472.23012 630.98007 472.71943 632.09764 473.20508 633.22266 C 473.69073 634.34768 474.17225 635.48022 474.64844 636.61719 C 475.60081 638.89111 476.53481 641.18533 477.45312 643.48242 C 478.37144 645.77952 479.27475 648.07974 480.16406 650.36719 C 481.05338 652.65464 481.92954 654.92883 482.79492 657.17383 C 483.6603 659.41883 484.51483 661.63495 485.36133 663.80469 C 486.20783 665.97443 487.04622 668.09849 487.87891 670.16016 C 488.71159 672.22182 489.5374 674.21983 490.36133 676.14062 C 490.77329 677.10102 491.18498 678.04191 491.5957 678.96094 C 492.00642 679.87996 492.41606 680.77879 492.82617 681.65234 C 493.23628 682.5259 493.6465 683.37524 494.05664 684.19922 C 494.46678 685.0232 494.87827 685.82149 495.28906 686.5918 C 495.69986 687.3621 496.1094 688.10388 496.52148 688.81641 C 496.93357 689.52893 497.34772 690.21263 497.76172 690.86328 C 498.17572 691.51393 498.59126 692.13212 499.00781 692.7168 C 499.42437 693.30147 499.84198 693.85259 500.26172 694.36719 C 500.68146 694.88178 501.10183 695.36037 501.52539 695.80078 C 501.73717 696.02099 501.95121 696.23075 502.16406 696.43164 C 502.37692 696.63253 502.58873 696.82284 502.80273 697.00391 C 503.01674 697.18497 503.23203 697.35685 503.44727 697.51758 C 503.6625 697.67831 503.87915 697.82887 504.0957 697.96875 C 504.31225 698.10863 504.52816 698.23696 504.74609 698.35547 C 504.96403 698.47398 505.18294 698.58305 505.40234 698.67969 C 505.62175 698.77632 505.84155 698.8613 506.0625 698.93555 C 506.28345 699.00979 506.50593 699.07366 506.72852 699.125 C 506.9511 699.17634 507.17415 699.21621 507.39844 699.24414 C 507.62272 699.27207 507.84815 699.28702 508.07422 699.29102 C 508.30029 699.29502 508.52792 699.28802 508.75586 699.26758 C 508.98379 699.24714 509.21153 699.21336 509.44141 699.16797 C 509.67128 699.12258 509.90287 699.065 510.13477 698.99414 C 510.36667 698.92328 510.59998 698.83902 510.83398 698.74219 C 511.06799 698.64535 511.30288 698.53544 511.53906 698.41211 C 511.77524 698.28878 512.01156 698.15228 512.25 698.00195 C 512.48844 697.85162 512.72797 697.68761 512.96875 697.50977 C 513.20953 697.33192 513.45212 697.13947 513.69531 696.93359 C 513.96432 696.47885 514.23661 696.03557 514.51367 695.59961 C 514.79074 695.16365 515.0732 694.73565 515.35742 694.31641 C 515.92587 693.47791 516.50785 692.67084 517.09961 691.88672 C 517.69137 691.1026 518.29245 690.34206 518.90039 689.5957 C 519.50833 688.84934 520.12324 688.1178 520.74023 687.39258 C 521.97423 685.94213 523.21782 684.51639 524.44531 683.05078 C 525.05906 682.31798 525.66809 681.57598 526.26953 680.81445 C 526.87097 680.05293 527.46487 679.27171 528.04688 678.46484 C 528.33788 678.06141 528.6273 677.65226 528.91211 677.23438 C 529.19692 676.81649 529.47813 676.38949 529.75586 675.95508 C 530.03358 675.52066 530.30642 675.07802 530.57617 674.625 C 530.84592 674.17198 531.11216 673.71003 531.37305 673.23633 C 531.63393 672.76262 531.88949 672.27772 532.14062 671.78125 C 532.39176 671.28478 532.63842 670.77521 532.87891 670.25391 C 533.11939 669.7326 533.35503 669.19861 533.58398 668.65039 C 533.81294 668.10217 534.03543 667.5401 534.25195 666.96289 C 534.46848 666.38568 534.67765 665.79383 534.88086 665.18555 C 535.08407 664.57726 535.2817 663.95393 535.4707 663.3125 C 535.65971 662.67107 535.83977 662.0126 536.01367 661.33594 C 536.18758 660.65928 536.3538 659.96396 536.51172 659.25 C 536.66964 658.53604 536.8199 657.80217 536.96094 657.04883 C 537.10198 656.29548 537.23415 655.52136 537.35742 654.72656 C 537.48069 653.93176 537.5946 653.11764 537.69922 652.2793 C 537.80383 651.44096 537.89931 650.57926 537.98438 649.69531 L 540.8457 607.54297 C 540.46928 607.04608 540.08899 606.55503 539.70312 606.06836 C 539.31726 605.58169 538.92638 605.09967 538.53125 604.62305 C 537.74098 603.66979 536.93181 602.73644 536.10547 601.82227 C 535.27913 600.90809 534.43528 600.01328 533.57422 599.13672 C 532.71316 598.26016 531.83585 597.40094 530.94141 596.56055 C 530.04697 595.72015 529.13546 594.89749 528.20898 594.0918 C 527.28251 593.2861 526.34193 592.49706 525.38477 591.72461 C 524.4276 590.95216 523.45525 590.19769 522.46875 589.45703 C 521.48225 588.71637 520.4813 587.98963 519.4668 587.2793 C 518.4523 586.56897 517.42396 585.87482 516.38281 585.19336 C 515.34166 584.5119 514.28716 583.8435 513.2207 583.18945 C 512.15425 582.53541 511.07479 581.89567 509.98438 581.26758 C 508.89396 580.63949 507.79272 580.02351 506.67969 579.41992 C 505.56666 578.81633 504.44289 578.22508 503.30859 577.64453 C 502.17429 577.06398 501.02922 576.49451 499.875 575.93555 C 498.72078 575.37658 497.55756 574.8279 496.38477 574.28906 C 495.21197 573.75022 494.02987 573.22135 492.83984 572.70117 C 492.65889 572.62208 492.4743 572.54743 492.29297 572.46875 A 109.72822 109.72821 0 0 0 455.00391 601.39258 z "
       transform="scale(0.26458333)"
       inkscape:export-filename="C:\Users\maxim\Documents\workspaces\LD50\Assets\Sprites\Earth.png"
       inkscape:export-xdpi="300"
       inkscape:export-ydpi="300" />
  </g>
</svg>
